# File created by Blade
# Date/Time:  Wed Jan 21 19:03:07 2015
# Frame Rate: 120.000 fps
#------------------------------------------------------
:FULLY-SPECIFIED
:DEGREES
2451
root -0.683177 31.610708 -6.848979 54.313704 1.665814 -6.680519
RightUpLeg -56.925062 -14.459939 -2.560705
RightLeg 11.103849 -0.000000 -0.000000
RightFoot 1.904923 16.909826 41.460081
RightToeBase 12.583918 -0.000000 -0.000000
LeftUpLeg -52.857271 11.346016 24.386928
LeftLeg 13.258469 -0.000000 -0.000000
LeftFoot -15.567716 -4.431634 -13.035343
LeftToeBase 4.800646 -0.000000 -0.000000
Spine -30.893616 -1.930088 8.331411
RightShoulder -16.540246 7.748433 -36.155888
RightArm -4.312849 -11.385221 56.943950
RightForeArm 18.833626 -0.000000 17.905587
RightHand 18.265667 0.000000 -17.942777
RightHandThumb1 -24.326973 -0.000000 -32.862282
LeftShoulder -6.514730 6.015379 35.377877
LeftArm 21.496810 -15.742435 -58.096252
LeftForeArm 21.156511 -0.000000 36.224596
LeftHand -19.778820 -0.000000 -6.736304
LeftHandThumb1 -26.253704 0.000000 33.147579
Head 23.252122 -9.310315 12.052264
2452
root -0.692566 31.621556 -6.719944 54.017586 1.582902 -6.684136
RightUpLeg -56.302206 -13.919485 -2.313919
RightLeg 10.627412 -0.000000 -0.000000
RightFoot 1.678579 18.228936 42.928459
RightToeBase 13.419967 -0.000000 -0.000000
LeftUpLeg -52.242038 11.379312 24.210893
LeftLeg 13.027043 -0.000000 -0.000000
LeftFoot -15.427229 -4.557695 -13.093719
LeftToeBase 4.564233 -0.000000 -0.000000
Spine -31.288846 -1.699068 8.436234
RightShoulder -16.664178 7.830522 -36.336102
RightArm -4.188517 -11.396756 56.219869
RightForeArm 18.588719 0.000000 17.746332
RightHand 18.256727 -0.000000 -18.012817
RightHandThumb1 -24.326973 -0.000000 -32.862282
LeftShoulder -6.589722 6.121593 35.524656
LeftArm 21.416405 -15.970072 -57.726017
LeftForeArm 21.097536 -0.000000 36.392625
LeftHand -19.853671 -0.000000 -6.642972
LeftHandThumb1 -26.253704 0.000000 33.147579
Head 23.525699 -9.496775 11.879439
2453
root -0.704831 31.629419 -6.591132 53.740349 1.467337 -6.622710
RightUpLeg -55.766673 -13.573991 -1.936180
RightLeg 10.219529 -0.000000 -0.000000
RightFoot 1.286378 19.047159 43.658037
RightToeBase 14.019918 -0.000000 -0.000000
LeftUpLeg -51.648114 11.400377 23.965804
LeftLeg 12.789991 -0.000000 -0.000000
LeftFoot -15.210876 -4.748883 -13.313640
LeftToeBase 4.217072 -0.000000 -0.000000
Spine -31.693295 -1.493946 8.488219
RightShoulder -16.756525 8.140829 -36.587465
RightArm -4.233746 -11.500850 55.527084
RightForeArm 18.432789 0.000000 17.586816
RightHand 18.059694 -0.000000 -18.225534
RightHandThumb1 -24.326973 -0.000000 -32.862282
LeftShoulder -6.748385 6.306842 35.626036
LeftArm 21.493186 -16.267620 -57.376718
LeftForeArm 21.062422 -0.000000 36.457003
LeftHand -19.937124 0.000000 -6.397712
LeftHandThumb1 -26.253704 0.000000 33.147579
Head 23.729001 -9.658454 11.704439
2454
root -0.717618 31.634808 -6.461800 53.475934 1.316250 -6.490865
RightUpLeg -55.278636 -13.372062 -1.533623
RightLeg 9.893631 -0.000000 -0.000000
RightFoot 1.014405 19.136723 44.706229
RightToeBase 15.224432 -0.000000 -0.000000
LeftUpLeg -51.087369 11.451923 23.598355
LeftLeg 12.554429 -0.000000 -0.000000
LeftFoot -15.005147 -4.949605 -13.347680
LeftToeBase 3.942795 -0.000000 -0.000000
Spine -32.103597 -1.285417 8.490059
RightShoulder -16.858170 8.270140 -36.836162
RightArm -4.071969 -11.554617 54.841505
RightForeArm 18.208622 -0.000000 17.348424
RightHand 17.939631 -0.000000 -18.351671
RightHandThumb1 -24.326973 -0.000000 -32.862282
LeftShoulder -6.907900 6.349167 35.708737
LeftArm 21.396431 -16.541495 -57.020319
LeftForeArm 21.111992 0.000000 36.621412
LeftHand -20.007364 -0.000000 -6.189728
LeftHandThumb1 -26.253704 0.000000 33.147579
Head 23.916980 -9.760921 11.456377
2455
root -0.733555 31.636188 -6.332901 53.205995 1.157090 -6.291275
RightUpLeg -54.880846 -13.401271 -0.993980
RightLeg 9.734553 -0.000000 -0.000000
RightFoot 0.537244 18.637830 45.258550
RightToeBase 16.065425 -0.000000 -0.000000
LeftUpLeg -50.517909 11.403958 23.244660
LeftLeg 12.305362 -0.000000 -0.000000
LeftFoot -14.757172 -5.119775 -13.497894
LeftToeBase 3.585474 -0.000000 -0.000000
Spine -32.510382 -1.091383 8.436374
RightShoulder -16.906793 8.393133 -37.072686
RightArm -3.971389 -11.533198 54.141772
RightForeArm 17.993837 -0.000000 17.148384
RightHand 18.138203 0.000000 -18.305559
RightHandThumb1 -24.326973 -0.000000 -32.862282
LeftShoulder -7.049765 6.501962 35.772240
LeftArm 21.387008 -16.906150 -56.699248
LeftForeArm 21.247389 0.000000 36.777152
LeftHand -20.070344 -0.000000 -5.951268
LeftHandThumb1 -26.253704 0.000000 33.147579
Head 24.077536 -9.874615 11.167462
2456
root -0.753661 31.636044 -6.207104 52.941773 0.984250 -6.044016
RightUpLeg -54.551464 -13.477969 -0.521375
RightLeg 9.806339 -0.000000 -0.000000
RightFoot -0.166394 17.893621 45.650497
RightToeBase 16.812077 -0.000000 -0.000000
LeftUpLeg -49.969857 11.322680 22.888646
LeftLeg 12.082928 -0.000000 -0.000000
LeftFoot -14.526605 -5.249076 -13.576210
LeftToeBase 3.317938 -0.000000 -0.000000
Spine -32.887648 -0.906124 8.355305
RightShoulder -16.977847 8.639753 -37.365043
RightArm -3.887368 -11.678794 53.482600
RightForeArm 17.801891 -0.000000 16.819583
RightHand 18.252683 0.000000 -18.397545
RightHandThumb1 -24.326973 -0.000000 -32.862282
LeftShoulder -7.259536 6.661999 35.798772
LeftArm 21.411875 -17.320198 -56.388514
LeftForeArm 21.400234 -0.000000 36.946792
LeftHand -20.098145 0.000000 -5.745091
LeftHandThumb1 -26.253704 0.000000 33.147579
Head 24.143003 -9.954823 10.842618
